<!--
    Licensed to the Apache Software Foundation (ASF) under one or more
    contributor license agreements.  See the NOTICE file distributed with
    this work for additional information regarding copyright ownership.
    The ASF licenses this file to You under the Apache License, Version 2.0
    (the "License"); you may not use this file except in compliance with
    the License.  You may obtain a copy of the License at

    http://www.apache.org/licenses/LICENSE-2.0

    Unless required by applicable law or agreed to in writing, software
    distributed under the License is distributed on an "AS IS" BASIS,
    WITHOUT WARRANTIES OR CONDITIONS OF ANY KIND, either express or implied.
    See the License for the specific language governing permissions and
    limitations under the License.
-->
<svg xmlns="http://www.w3.org/2000/svg" viewBox="1275 1191 270.156 114.21"><defs><style>.a{fill:#6a8791;}.b{fill:#ebf0f2;}</style></defs><g transform="translate(1275 1191)"><path class="a" d="M19.069,33.206v9.1h.289a20.231,20.231,0,0,1,8.236-8.452,24.366,24.366,0,0,1,11.557-2.673q9.535,0,14.663,5.2t5.129,16.9V110.93H39.007v-53.6q0-6.068-2.022-8.451t-6.5-2.384q-10.548,0-10.546,12.858v51.576H0V33.206Z" transform="translate(0 -1.199)"/><rect class="a" width="19.937" height="17.047" transform="translate(72.338 5.424)"/><rect class="a" width="19.937" height="77.725" transform="translate(72.338 32.007)"/><g transform="translate(188.753 0)"><path class="a" d="M235.332,110.859A39.029,39.029,0,0,1,196.3,71.83c0-18.555,14.538-36.338,24.483-49.32A146.1,146.1,0,0,0,234.927.253a.451.451,0,0,1,.811,0A146.04,146.04,0,0,0,249.88,22.51c9.941,12.979,24.484,30.765,24.484,49.32H250.547a.917.917,0,0,0-.916.916V86.131H236.25a.917.917,0,0,0-.916.916v23.812Z" transform="translate(-196.303 0)"/><path class="a" d="M252.248,104.929V92.185H240.417a.917.917,0,0,0-.916.916v11.828Z" transform="translate(-197.965 -3.545)"/><path class="a" d="M239.5,118.325a38.062,38.062,0,0,0,12.747-2.451v-6.419H240.417a.917.917,0,0,0-.916.916Z" transform="translate(-197.965 -4.21)"/><path class="a" d="M267.115,90.054V77.311H255.287a.917.917,0,0,0-.916.916V90.053h12.744Z" transform="translate(-198.537 -2.973)"/><path class="a" d="M268.737,106.559l.015-.015a2.675,2.675,0,0,0,.766-1.89V94.581H256.773v12.747h10.07A2.671,2.671,0,0,0,268.737,106.559Z" transform="translate(-198.629 -3.638)"/><path class="a" d="M257.673,118.546a38.1,38.1,0,0,0,9.423-5.792h-9.423Z" transform="translate(-198.663 -4.337)"/><path class="a" d="M278.058,90.054a37.952,37.952,0,0,0,2.453-12.743h-8.867V90.054Z" transform="translate(-199.201 -2.973)"/><path class="a" d="M274.942,104.906a38.074,38.074,0,0,0,5.789-9.425h-5.789Z" transform="translate(-199.328 -3.672)"/><path class="a" d="M274.942,104.906a38.074,38.074,0,0,0,5.789-9.425h-5.789Z" transform="translate(-199.328 -3.672)"/></g><path class="b" d="M106.031,45.769V32.189h10.112V23.377a23.771,23.771,0,0,1,1.444-8.812A13.905,13.905,0,0,1,121.7,8.785a16.359,16.359,0,0,1,6.573-3.107,37.077,37.077,0,0,1,8.668-.938q5.342,0,10.69.433V19.33a11.014,11.014,0,0,0-2.022-.144h-1.879q-4.191,0-5.923,1.444T136.078,25.4v6.789h11.558V45.769H136.078v64.144H116.141V45.769Z" transform="translate(-4.078 -0.182)"/><rect class="b" width="19.936" height="17.047" transform="translate(155.41 5.424)"/><rect class="b" width="19.936" height="77.725" transform="translate(155.41 32.007)"/><path class="b" d="M227.593,19.637c-.72,1.006-1.429,2.019-2.154,3.02-2.286,3.155-4.694,6.217-7.051,9.319q1.385.192,2.779.425c1.967-3.291,3.968-6.562,5.852-9.9.528-.936,1.044-1.879,1.567-2.819C229,18.938,228.041,19.012,227.593,19.637Z" transform="translate(-8.4 -0.736)"/><path class="b" d="M217.548,37.951c.346-.611.706-1.213,1.059-1.82-1.055-.2-2.111-.4-3.165-.564l-.01,0a130.66,130.66,0,0,0-9.138,14.021c-4.907,8.9-8.311,18.841-6.746,29.1a36.515,36.515,0,0,0,12.167,21.969,35.929,35.929,0,0,0,4.418,3.264.469.469,0,0,0,.574-.735,39.143,39.143,0,0,1-10.557-17.8c-2.92-10.773-.493-21.812,3.665-31.915A138.355,138.355,0,0,1,217.548,37.951Z" transform="translate(-7.661 -1.368)"/></g></svg>